<?xml version="1.0" encoding="UTF-8" standalone="no"?>
<svg
   xmlns:osb="http://www.openswatchbook.org/uri/2009/osb"
   xmlns:dc="http://purl.org/dc/elements/1.1/"
   xmlns:cc="http://creativecommons.org/ns#"
   xmlns:rdf="http://www.w3.org/1999/02/22-rdf-syntax-ns#"
   xmlns:svg="http://www.w3.org/2000/svg"
   xmlns="http://www.w3.org/2000/svg"
   id="svg8"
   version="1.1"
   viewBox="0 0 10.68744 8.0214261"
   height="8.0214262mm"
   width="10.68744mm">
  <defs
     id="defs2">
    <linearGradient
       osb:paint="solid"
       id="linearGradient5993">
      <stop
         id="stop5991"
         offset="0"
         style="stop-color:#ff0a45;stop-opacity:1;" />
    </linearGradient>
  </defs>
  <metadata
     id="metadata5">
    <rdf:RDF>
      <cc:Work
         rdf:about="">
        <dc:format>image/svg+xml</dc:format>
        <dc:type
           rdf:resource="http://purl.org/dc/dcmitype/StillImage" />
        <dc:title></dc:title>
      </cc:Work>
    </rdf:RDF>
  </metadata>
  <g
     transform="translate(-45.357281,-111.17796)"
     id="layer1">
    <g
       style="fill:#070093;fill-opacity:1;stroke:none;stroke-opacity:1"
       transform="rotate(-1.6208348,50.698406,114.22746)"
       id="g6015">
      <g
         aria-label="M"
         style="font-style:normal;font-variant:normal;font-weight:normal;font-stretch:normal;font-size:8.46666622px;line-height:1.25;font-family:'Lucida Fax';-inkscape-font-specification:'Lucida Fax, Normal';font-variant-ligatures:normal;font-variant-caps:normal;font-variant-numeric:normal;font-feature-settings:normal;text-align:start;letter-spacing:0px;word-spacing:0px;writing-mode:lr-tb;text-anchor:start;fill:#070093;fill-opacity:1;stroke:none;stroke-width:0.26458332;stroke-opacity:1"
         id="text4520"
         transform="translate(-7.7500701,8.4623927)">
        <path
           d="m 62.879419,107.71261 c -0.115755,0.44097 0.384073,1.20304 -0.0092,1.16425 l -2.074646,-0.20462 c -0.460785,-0.0455 -0.694531,-0.13367 -0.694531,-0.40101 0,-0.0937 0.103354,-0.22669 0.161234,-0.37827 l 0.686263,-1.78594 -2.050521,2.24896 c -0.220486,0.24529 -0.461643,0.36794 -0.72347,0.36794 -0.04961,0 -0.101972,-0.004 -0.157096,-0.0124 -0.314193,-0.0358 -0.471289,-0.1929 -0.471289,-0.47129 0,-0.10749 0.0248,-0.22324 0.07441,-0.34726 l 1.016992,-2.62516 -2.550748,3.07991 c -0.170877,0.20946 -0.42168,0.31419 -0.752409,0.31419 h -0.839225 l 1.670182,-4.7749 -2.07946,0.24288 -0.04754,-1.47795 3.218407,0.19327 c 0.379655,0.0228 0.570508,0.13918 0.570508,0.41755 0,0.10749 -0.02618,0.23702 -0.07855,0.38861 l -0.888835,2.56315 1.777669,-2.01332 c 0.225999,-0.25907 0.399632,-0.42719 0.520899,-0.50436 0.201193,-0.12678 0.461642,-0.19017 0.781347,-0.19017 0.09095,0 0.186035,0.0317 0.285254,0.0951 0.151584,0.0992 0.227376,0.24667 0.227376,0.44235 0,0.12127 -0.03032,0.25769 -0.09095,0.40927 l -0.802018,2.0836 1.591634,-1.5999 c 0.225998,-0.226 0.376204,-0.36243 0.450618,-0.40928 0.129536,-0.0744 0.315571,-0.11024 0.558106,-0.10749 0.09646,0 0.198437,0.0358 0.305924,0.10749 0.165365,0.10749 0.248047,0.26458 0.248047,0.47129 0,0.11851 -0.101974,0.25976 -0.157094,0.40308 l -0.988054,2.60863 z"
           style="font-style:normal;font-variant:normal;font-weight:normal;font-stretch:normal;font-family:Magneto;-inkscape-font-specification:Magneto;fill:#070093;fill-opacity:1;stroke:none;stroke-width:0.26458332;stroke-opacity:1"
           id="path4522" />
      </g>
      <path
         style="opacity:1;vector-effect:none;fill:#070093;fill-opacity:1;fill-rule:nonzero;stroke:none;stroke-width:0.11391693;stroke-linecap:butt;stroke-linejoin:miter;stroke-miterlimit:4;stroke-dasharray:none;stroke-dashoffset:0;stroke-opacity:1;paint-order:stroke fill markers"
         d="m 45.887822,112.47995 c -0.140452,-0.0141 -0.277133,-0.0643 -0.393395,-0.14433 -0.116263,-0.08 -0.211862,-0.18986 -0.275155,-0.31603 -0.06329,-0.12618 -0.09415,-0.26846 -0.0888,-0.40952 0.0053,-0.14106 0.04688,-0.2806 0.119533,-0.40162 0.07266,-0.12103 0.176291,-0.22328 0.298278,-0.29432 0.121986,-0.071 0.262069,-0.11069 0.403187,-0.11414 0.141119,-0.003 0.282975,0.0293 0.408292,0.0943 0.125317,0.065 0.233832,0.16204 0.312327,0.27936 0.02832,0.0423 0.05279,0.0872 0.07301,0.13398 0.05793,0.13394 0.08022,0.28311 0.06397,0.42813 -0.01625,0.14503 -0.071,0.28556 -0.157138,0.40336 -0.08614,0.1178 -0.203463,0.21258 -0.336737,0.27203 -0.133274,0.0594 -0.282178,0.0834 -0.427379,0.0688 z"
         id="path4525"
         transform="matrix(0.87783268,0,0,0.87783274,5.9465096,13.850599)" />
      <path
         style="opacity:0.93999999;vector-effect:none;fill:#070093;fill-opacity:1;fill-rule:nonzero;stroke:none;stroke-width:0.14336079;stroke-linecap:butt;stroke-linejoin:miter;stroke-miterlimit:4;stroke-dasharray:none;stroke-dashoffset:0;stroke-opacity:1;paint-order:stroke fill markers"
         d="m 45.887822,112.47995 c -0.140452,-0.0141 -0.277133,-0.0643 -0.393395,-0.14433 -0.116263,-0.08 -0.211862,-0.18986 -0.275155,-0.31603 -0.06329,-0.12618 -0.09415,-0.26846 -0.0888,-0.40952 0.0053,-0.14106 0.04688,-0.2806 0.119533,-0.40162 0.07266,-0.12103 0.176291,-0.22328 0.298278,-0.29432 0.121986,-0.071 0.262069,-0.11069 0.403187,-0.11414 0.141119,-0.003 0.282975,0.0293 0.408292,0.0943 0.125317,0.065 0.233832,0.16204 0.312327,0.27936 0.02832,0.0423 0.05279,0.0872 0.07301,0.13398 0.05793,0.13394 0.08022,0.28311 0.06397,0.42813 -0.01625,0.14503 -0.071,0.28556 -0.157138,0.40336 -0.08614,0.1178 -0.203463,0.21258 -0.336737,0.27203 -0.133274,0.0594 -0.282178,0.0834 -0.427379,0.0688 z"
         id="path4525-2"
         transform="matrix(0.69754082,0,0,0.69754082,23.178979,38.875124)" />
    </g>
    <text
       id="text6005"
       y="114.33828"
       x="57.646091"
       style="font-style:normal;font-variant:normal;font-weight:normal;font-stretch:normal;font-size:8.46666622px;line-height:1.25;font-family:'Lucida Fax';-inkscape-font-specification:'Lucida Fax, Normal';font-variant-ligatures:normal;font-variant-caps:normal;font-variant-numeric:normal;font-feature-settings:normal;text-align:start;letter-spacing:0px;word-spacing:0px;writing-mode:lr-tb;text-anchor:start;fill:#000000;fill-opacity:1;stroke:none;stroke-width:0.26458332"
       xml:space="preserve"><tspan
         style="stroke-width:0.26458332"
         y="122.08439"
         x="57.646091"
         id="tspan6003"></tspan></text>
  </g>
</svg>
